<svg width="28" height="21" viewBox="0 0 28 21" fill="none" xmlns="http://www.w3.org/2000/svg">
<path d="M26.5127 3.55591C26.8602 3.55591 27.1934 3.69393 27.4391 3.93961C27.6847 4.18529 27.8228 4.5185 27.8228 4.86594L27.8228 19.1758C27.8216 19.5496 27.6726 19.9077 27.4084 20.1719C27.1441 20.4362 26.786 20.5852 26.4123 20.5863L9.57578 20.5863C9.20391 20.5852 8.8476 20.4369 8.58464 20.174C8.32169 19.911 8.17345 19.5547 8.1723 19.1828L8.1723 4.96638C8.17345 4.59265 8.32242 4.23457 8.58669 3.9703C8.85095 3.70604 9.20904 3.55707 9.58277 3.55591L26.5127 3.55591Z" fill="url(#paint0_linear_290_1079)" fill-opacity="0.8"/>
<path d="M1.62216 17.0929C1.27472 17.0929 0.941511 16.9549 0.695833 16.7092C0.450154 16.4635 0.312134 16.1303 0.312134 15.7829V1.47297C0.313285 1.09924 0.462258 0.741153 0.726522 0.476888C0.990786 0.212624 1.34888 0.0636517 1.7226 0.0625H18.5591C18.931 0.0636517 19.2873 0.211887 19.5502 0.474842C19.8132 0.737796 19.9614 1.09411 19.9626 1.46598V15.6824C19.9614 16.0562 19.8125 16.4142 19.5482 16.6785C19.2839 16.9428 18.9258 17.0917 18.5521 17.0929H1.62216Z" fill="#6A86F2"/>
<path d="M0.312134 1.47297V3.55591L19.9626 3.45548V1.46598C19.9614 1.09411 19.8132 0.737796 19.5502 0.474842C19.2873 0.211887 18.931 0.0636517 18.5591 0.0625H1.7226C1.34888 0.0636517 0.990786 0.212624 0.726522 0.476888C0.462258 0.741153 0.313285 1.09924 0.312134 1.47297Z" fill="#2D4AB8"/>
<path d="M11.1908 9.79272H14.3746" stroke="white" stroke-width="1.5" stroke-linecap="round" stroke-linejoin="round"/>
<path d="M5.92712 7.67017L8.04965 9.79269L5.92712 11.9152" stroke="white" stroke-width="1.5" stroke-linecap="round" stroke-linejoin="round"/>
<defs>
<linearGradient id="paint0_linear_290_1079" x1="15.1591" y1="3.11924" x2="15.1591" y2="19.713" gradientUnits="userSpaceOnUse">
<stop stop-color="#FCBA01"/>
<stop offset="1" stop-color="white"/>
</linearGradient>
</defs>
</svg>
